<?xml version="1.0" encoding="utf-8"?>
<!-- Generator: Adobe Illustrator 26.3.1, SVG Export Plug-In . SVG Version: 6.00 Build 0)  -->
<svg version="1.1" id="Layer_1" xmlns="http://www.w3.org/2000/svg" xmlns:xlink="http://www.w3.org/1999/xlink" x="0px" y="0px"
	 viewBox="0 0 16 16" style="enable-background:new 0 0 16 16;" xml:space="preserve">
<style type="text/css">
	.st0{fill:#A91E22;}
</style>
<path class="st0" d="M16,8c0,4.4-3.6,8-8,8s-8-3.6-8-8s3.6-8,8-8S16,3.6,16,8z M5.4,4.6c-0.2-0.2-0.5-0.2-0.7,0s-0.2,0.5,0,0.7
	L7.3,8l-2.6,2.6c-0.2,0.2-0.2,0.5,0,0.7s0.5,0.2,0.7,0L8,8.7l2.6,2.6c0.2,0.2,0.5,0.2,0.7,0s0.2-0.5,0-0.7L8.7,8l2.6-2.6
	c0.2-0.2,0.2-0.5,0-0.7s-0.5-0.2-0.7,0L8,7.3L5.4,4.6z"/>
</svg>
