<?xml version="1.0" encoding="utf-8"?>
<!-- Generator: Adobe Illustrator 24.0.2, SVG Export Plug-In . SVG Version: 6.00 Build 0)  -->
<svg version="1.1" id="Layer_1" xmlns="http://www.w3.org/2000/svg" xmlns:xlink="http://www.w3.org/1999/xlink" x="0px" y="0px"
	 viewBox="0 0 1024 1024" style="enable-background:new 0 0 1024 1024;" xml:space="preserve">
<style type="text/css">
	.st0{fill:#FF9A3F;}
</style>
<g>
	<g>
		<g>
			<polygon class="st0" points="413.47,398.22 413.47,512.01 512,568.88 610.53,512.01 610.53,398.22 512,341.34 			"/>
			<path class="st0" d="M1004.67,284.45V170.68l-56.9-32.84l-41.63-24.06L709.07,0H314.93L117.86,113.77l-98.53,56.9v65.69v48.08
				v227.56L216.4,853.32l197.07,113.79L512,1024l56.89-32.84l41.65-24.04L807.6,853.32l197.07-341.32V284.45z M117.86,455.11V227.56
				l197.07-113.79H512L314.93,227.56l-98.54,56.89v65.71l-0.02,48.06h0.02v227.56L117.86,455.11z M709.07,341.33v227.56L512,682.67
				L314.93,568.89V341.33L512,227.56L709.07,341.33z M709.07,796.46L512,910.21L314.93,796.46L216.4,625.78l197.07,113.77v0.02
				L512,796.46l56.89-32.86l41.65-24.02v-0.02L807.6,625.78L709.07,796.46z M906.14,455.11L807.6,625.78V398.22V284.45l-56.89-32.84
				l-41.65-24.04L512,113.77h197.07l197.07,113.79V455.11z"/>
		</g>
	</g>
</g>
</svg>
