<?xml version="1.0" encoding="utf-8"?>
<!-- Generator: Adobe Illustrator 26.3.1, SVG Export Plug-In . SVG Version: 6.00 Build 0)  -->
<svg version="1.1" id="Layer_1" xmlns="http://www.w3.org/2000/svg" xmlns:xlink="http://www.w3.org/1999/xlink" x="0px" y="0px"
	 viewBox="0 0 80 80" style="enable-background:new 0 0 80 80;" xml:space="preserve">
<style type="text/css">
	.st0{fill-rule:evenodd;clip-rule:evenodd;fill:#231F20;}
	.st1{fill-rule:evenodd;clip-rule:evenodd;fill:#FFFFFF;}
</style>
<g id="Icon-Architecture_x2F_64_x2F_Arch_x5F_AWS-Bottlerocket_x5F_64">
	<g id="Icon-Architecture-BG_x2F_64_x2F_Compute">
		<rect id="Rectangle" class="st0" width="80" height="80"/>
	</g>
	<g id="Icon-Service_x2F_64_x2F_Bottlerocket" transform="translate(8.000000, 8.000000)">
		<path id="Bottlerocket_Icon_64_Squid" class="st1" d="M31.9,6c0.1-0.1,0.2-0.1,0.2,0l10.1,12.3c-2.4-0.6-5.9-1.2-10.2-1.2
			c-4.1,0-7.5,0.6-9.8,1.1L31.9,6z M19.9,21.1c0,0,5-1.9,12.1-1.9c7.4,0,12.6,1.9,12.6,1.9c0.1,0,0.2,0.1,0.4,0.1
			c0.3,0,0.6-0.1,0.8-0.4c0.3-0.4,0.2-0.9,0-1.2L33.7,4.8c-0.8-1-2.6-1-3.4,0L18.7,19.6c-0.3,0.4-0.3,0.9,0,1.2
			C19,21.2,19.4,21.3,19.9,21.1L19.9,21.1z M29,58.2h5v-2h-5V58.2z M25,56.2h2v3c0,0.6,0.4,1,1,1h7c0.6,0,1-0.4,1-1v-3h2v-2H25V56.2
			z M47,50.8l-5.6-5.4c0.4-1.7,0.5-3.8,0.5-6.1v-6.5l5.1,5.9V50.8z M48.8,37.6l-6.8-7.9l0,0v-7.5H40v17c0,7.3-0.9,9-5,9
			c-0.6,0-1,0.4-1,1v4h1.9v-3c2.5-0.2,3.9-1.2,4.8-2.8l6.6,6.5c0.2,0.2,0.4,0.3,0.7,0.3c0.1,0,0.3,0,0.4-0.1
			c0.4-0.2,0.6-0.5,0.6-0.9V38.2C49,38,48.9,37.8,48.8,37.6L48.8,37.6z M15.9,50.8V38.6l5.1-5.9v6.5c0,2.3,0.1,4.4,0.5,6.1
			L15.9,50.8z M27,50.2v3h2v-4c0-0.6-0.4-1-1-1c-4.1,0-5-1.7-5-9v-17h-2v7.5l0,0l-6.8,7.9C14,37.8,14,38,14,38.2v14.9
			c0,0.4,0.1,0.8,0.5,0.9c0.1,0.1,0.3,0.1,0.4,0.1c0.3,0,0.5-0.1,0.7-0.3l6.6-6.5C23.1,49,24.5,50,27,50.2L27,50.2z M27,36.1v-3.7
			l3,1.2v4.2L27,36.1z M31.5,28.3l3.6,2.1l-3.6,1.7l-3.8-1.6L31.5,28.3z M32,38.5v-4.4l4-1.8v3.9L32,38.5z M30,40.2l1,0.6
			c0.2,0.1,0.3,0.1,0.5,0.1c0.2,0,0.3,0,0.5-0.1l5.5-3.2c0.3-0.2,0.5-0.5,0.5-0.9v-6.4c0-0.4-0.2-0.7-0.5-0.9L32,26.3
			c-0.3-0.2-0.7-0.2-1,0l-5.5,3.2C25.2,29.7,25,30,25,30.4v6.4c0,0.4,0.2,0.7,0.5,0.9L30,40.2L30,40.2L30,40.2z"/>
	</g>
</g>
</svg>
