<?xml version="1.0" encoding="utf-8"?>
<!-- Generator: Adobe Illustrator 26.3.1, SVG Export Plug-In . SVG Version: 6.00 Build 0)  -->
<svg version="1.1" id="Layer_1" xmlns="http://www.w3.org/2000/svg" xmlns:xlink="http://www.w3.org/1999/xlink" x="0px" y="0px"
	 viewBox="0 0 80 80" style="enable-background:new 0 0 80 80;" xml:space="preserve">
<style type="text/css">
	.st0{fill-rule:evenodd;clip-rule:evenodd;fill:#231F20;}
	.st1{fill-rule:evenodd;clip-rule:evenodd;fill:#FFFFFF;}
</style>
<g id="Icon-Architecture_x2F_64_x2F_Arch_x5F_Amazon-ECS-Anywhere_x5F_64">
	<g id="Rectangle">
		<rect class="st0" width="80" height="80"/>
	</g>
	<g id="Icon-Service_x2F_64_x2F_Amazon-ECS-Anywhere_x5F_64" transform="translate(8.000000, 8.000000)">
		<path id="Fill-1" class="st1" d="M55,42.3l-7.1-4.2c0.7-1.9,1.2-4,1.2-6.2c0-8.1-5.6-14.8-13.1-16.6V6.8l19,11.6V42.3z M32,58
			L9,44.7V18.3L28,6.8v8.6C20.6,17.2,15,24,15,32c0,9.4,7.6,17.1,17,17.1c4.6,0,8.7-1.8,11.8-4.8l5.8,3.5L32,58z M41,31
			c-0.2-4.9-1.2-9.5-2.6-12.6c4.8,2.3,8.2,7,8.6,12.6H41z M41,33h5.9c-0.4,5.5-3.6,10.1-8.2,12.5C40.3,42.1,41,37.5,41,33L41,33z
			 M33,33h6c0,5.2-0.9,10.4-3.3,13.6C34.8,46.8,33.9,47,33,47V33z M28.3,46.6c-2.1-2.6-3.1-8-3.1-13.6H31v14
			C30,47,29.1,46.8,28.3,46.6L28.3,46.6z M23.1,33c0,4.7,0.8,9.3,2.2,12.5c-4.7-2.3-7.9-7-8.3-12.5H23.1z M23.1,31H17
			c0.4-5.6,3.8-10.4,8.7-12.7C24.2,21.6,23.3,26.3,23.1,31L23.1,31z M31,31h-5.8c0.2-5.5,1.4-10.8,3.4-13.7c0.8-0.2,1.6-0.3,2.4-0.3
			V31z M33,17c0.8,0.1,1.6,0.2,2.4,0.4c1.8,2.1,3.2,7.7,3.5,13.6H33V17z M56.5,17l-21-12.8c-0.3-0.2-0.7-0.2-1,0
			c-0.3,0.2-0.5,0.5-0.5,0.9v10c-0.6-0.1-1.3-0.1-1.9-0.1c-0.7,0-1.3,0-1.9,0.1V5c0-0.4-0.2-0.7-0.5-0.9c-0.3-0.2-0.7-0.2-1,0
			l-21,12.8C7.2,17.1,7,17.4,7,17.8v27.5c0,0.4,0.2,0.7,0.5,0.9l24,13.9c0.2,0.1,0.3,0.1,0.5,0.1c0.2,0,0.3,0,0.5-0.1L52,48.6
			c0.3-0.2,0.5-0.5,0.5-0.9c0-0.4-0.2-0.7-0.5-0.9l-6.9-4.1c0.7-0.9,1.3-1.8,1.8-2.8l8.5,4.9c0.2,0.1,0.3,0.1,0.5,0.1
			c0.2,0,0.3,0,0.5-0.1c0.3-0.2,0.5-0.5,0.5-0.9V17.8C57,17.5,56.8,17.2,56.5,17L56.5,17z"/>
	</g>
</g>
</svg>
