<?xml version="1.0" encoding="utf-8"?>
<!-- Generator: Adobe Illustrator 26.3.1, SVG Export Plug-In . SVG Version: 6.00 Build 0)  -->
<svg version="1.1" id="Layer_1" xmlns="http://www.w3.org/2000/svg" xmlns:xlink="http://www.w3.org/1999/xlink" x="0px" y="0px"
	 viewBox="0 0 80 80" style="enable-background:new 0 0 80 80;" xml:space="preserve">
<style type="text/css">
	.st0{fill-rule:evenodd;clip-rule:evenodd;fill:#231F20;}
	.st1{fill-rule:evenodd;clip-rule:evenodd;fill:#FFFFFF;}
</style>
<g id="Icon-Architecture_x2F_64_x2F_Arch_x5F_AWS-Scout_x5F_64">
	<g id="Rectangle" transform="translate(-0.000000, 0.000000)">
		<rect class="st0" width="80" height="80"/>
	</g>
	<g id="Icon-Service_x2F_64_x2F_AWS-Scout_x5F_64" transform="translate(8.000000, 8.000000)">
		<path id="Fill-1" class="st1" d="M58,41c0-0.6-0.4-1-1-1H15c-0.6,0-1,0.4-1,1v6c0,0.6,0.4,1,1,1h42c0.6,0,1-0.4,1-1V41z M60,41v6
			c0,1.7-1.3,3-3,3H15c-1.7,0-3-1.3-3-3v-6c0-1.7,1.3-3,3-3h42C58.7,38,60,39.3,60,41L60,41z M17,45h3v-2h-3V45z M23,45h6v-2h-6V45z
			 M32,45h23v-2H32V45z M11.3,25.4c0,0,0,0.1,0,0.1c0,0.5-0.3,0.9-0.8,1C8.8,27,6,28.3,6,32.4c0,0.1,0,0.3,0,0.4
			c0.1,1.9,0.8,5.1,4.3,5.5l-0.3,2c-5.3-0.7-5.9-5.9-6-7.4c0-0.2,0-0.3,0-0.5c0-3.6,1.9-6.4,5.2-7.5c0-0.2,0-0.3,0-0.5
			c0-4.1,2.8-8.4,6.4-9.9c4.3-1.8,8.8-0.9,12.1,2.4c0.9,0.9,1.7,2.1,2.4,3.4c1.2-0.9,2.8-1.2,4.2-0.8c2.1,0.6,3.5,2.5,3.9,5.1
			c2.2,0.5,6.3,2.1,6.3,9.8h-2c0-6.2-2.7-7.5-5.4-8c-0.5-0.1-0.9-0.6-0.8-1.1c-0.2-2.1-1.1-3.5-2.5-3.9c-1.2-0.3-2.4,0.1-3.2,1.2
			c-0.2,0.3-0.6,0.4-1,0.4c-0.4-0.1-0.7-0.3-0.8-0.7c-0.6-1.6-1.4-3-2.5-4.1c-1.3-1.3-4.9-4.1-9.9-2c-2.9,1.2-5.2,4.8-5.2,8.1
			C11.2,24.7,11.2,25.1,11.3,25.4L11.3,25.4z"/>
	</g>
</g>
</svg>
