<?xml version="1.0" encoding="utf-8"?>
<!-- Generator: Adobe Illustrator 26.3.1, SVG Export Plug-In . SVG Version: 6.00 Build 0)  -->
<svg version="1.1" id="Layer_1" xmlns="http://www.w3.org/2000/svg" xmlns:xlink="http://www.w3.org/1999/xlink" x="0px" y="0px"
	 viewBox="0 0 80 80" style="enable-background:new 0 0 80 80;" xml:space="preserve">
<style type="text/css">
	.st0{fill-rule:evenodd;clip-rule:evenodd;fill:#231F20;}
	.st1{fill-rule:evenodd;clip-rule:evenodd;fill:#FFFFFF;}
</style>
<g id="Icon-Architecture_x2F_64_x2F_Arch_x5F_AWS-Parallel-Cluster_x5F_64">
	<g id="Rectangle">
		<rect class="st0" width="80" height="80"/>
	</g>
	<g id="Icon-Service_x2F_64_x2F_AWS-ParallelClusters_x5F_64" transform="translate(8.000000, 8.000000)">
		<path id="AWS-ParallelClusters_Icon_64_Squid" class="st1" d="M40.8,54h8v-8h-8V54z M50.8,45v10c0,0.6-0.4,1-1,1h-10
			c-0.6,0-1-0.4-1-1V45c0-0.6,0.4-1,1-1h10C50.3,44,50.8,44.4,50.8,45L50.8,45z M55.8,38h-10c-0.6,0-1,0.4-1,1v3c0,0.6,0.4,1,1,1
			c0.6,0,1-0.4,1-1v-2h8v8h-1c-0.6,0-1,0.4-1,1s0.4,1,1,1h2c0.6,0,1-0.4,1-1V39C56.8,38.4,56.3,38,55.8,38L55.8,38z M14.8,18h8v-8
			h-8V18z M12.8,19V9c0-0.6,0.4-1,1-1h10c0.6,0,1,0.4,1,1v10c0,0.6-0.4,1-1,1h-10C13.2,20,12.8,19.6,12.8,19L12.8,19z M6.8,26h10
			c0.6,0,1-0.4,1-1v-2c0-0.6-0.4-1-1-1c-0.6,0-1,0.4-1,1v1h-8v-8h2c0.6,0,1-0.4,1-1s-0.4-1-1-1h-3c-0.6,0-1,0.4-1,1v10
			C5.8,25.6,6.2,26,6.8,26L6.8,26z M59.1,36.1c-0.2,0.5-0.7,0.8-1.2,0.7c-0.5-0.2-0.8-0.7-0.7-1.2c0.8-2.9,0.3-6-1.4-8.2
			c-1.6-2.1-3.9-3.2-6.9-3.2c-7.6,0-11.8,4.2-15.9,9c2.6,3,5.3,5.9,8.7,7.5c0.5,0.2,0.7,0.8,0.5,1.3c-0.2,0.4-0.5,0.6-0.9,0.6
			c-0.1,0-0.3,0-0.4-0.1c-3.7-1.8-6.5-4.7-9.2-7.8c-4,4.7-8.3,9.4-15.6,9.4c-4.1,0-7.5-1.7-9.8-4.7c-2.1-2.9-2.8-6.5-1.9-9.8
			c0.2-0.5,0.7-0.8,1.2-0.7c0.5,0.2,0.8,0.7,0.7,1.2c-0.8,2.7-0.2,5.8,1.5,8.1c1.9,2.5,4.8,3.9,8.2,3.9c6.6,0,10.3-4.3,14.3-8.9
			c-3-3.4-5.8-6.6-9.6-8.1c-0.5-0.2-0.8-0.8-0.6-1.3c0.2-0.5,0.8-0.8,1.3-0.6c4.1,1.7,7.2,5.1,10.1,8.5c4.2-4.9,8.9-9.5,17.2-9.5
			c3.6,0,6.6,1.4,8.5,3.9C59.4,28.8,60.1,32.7,59.1,36.1L59.1,36.1z"/>
	</g>
</g>
</svg>
