<?xml version="1.0" encoding="utf-8"?>
<!-- Generator: Adobe Illustrator 26.3.1, SVG Export Plug-In . SVG Version: 6.00 Build 0)  -->
<svg version="1.1" id="Layer_1" xmlns="http://www.w3.org/2000/svg" xmlns:xlink="http://www.w3.org/1999/xlink" x="0px" y="0px"
	 viewBox="0 0 80 80" style="enable-background:new 0 0 80 80;" xml:space="preserve">
<style type="text/css">
	.st0{fill-rule:evenodd;clip-rule:evenodd;fill:url(#Rectangle_00000143608386431365843870000002789887642828847551_);}
	.st1{fill-rule:evenodd;clip-rule:evenodd;fill:#FFFFFF;}
</style>
<g id="Icon-Architecture_x2F_64_x2F_Arch_x5F_AWS-Bottlerocket_x5F_64">
	<g id="Icon-Architecture-BG_x2F_64_x2F_Compute">
		
			<linearGradient id="Rectangle_00000111870890819721326040000004141077422833117117_" gradientUnits="userSpaceOnUse" x1="-206.3875" y1="287.3875" x2="-205.3875" y2="288.3875" gradientTransform="matrix(80 0 0 -80 16511 23071)">
			<stop  offset="0" style="stop-color:#C8511B"/>
			<stop  offset="1" style="stop-color:#FF9900"/>
		</linearGradient>
		
			<rect id="Rectangle" style="fill-rule:evenodd;clip-rule:evenodd;fill:url(#Rectangle_00000111870890819721326040000004141077422833117117_);" width="80" height="80"/>
	</g>
	<g id="Icon-Resource_x2F_Storage_x2F_Res_x5F_Amazon-Simple-Storage_x5F_Service-Standard_x5F_48">
		<path id="Amazon-Simple-Storage_Service-Standard_Resource-Icon_light-bg" class="st1" d="M56.3,42.1l0.2-1.6
			c1.7,1.1,2.3,1.7,2.5,2C58.8,42.5,58,42.5,56.3,42.1L56.3,42.1z M52.3,56.8c0,0,0,0.1,0,0.1c0,0.2-0.4,0.7-2.1,1.4
			c-0.8,0.3-1.6,0.6-2.6,0.8c-2.6,0.6-5.7,0.9-8.9,0.9c-8.5,0-13.6-2.2-13.6-3.1c0,0,0-0.1,0-0.1l-3.8-28.5c0.2,0.1,0.5,0.3,0.8,0.4
			c0.1,0,0.2,0.1,0.2,0.1c0.2,0.1,0.5,0.2,0.8,0.3c0.1,0,0.2,0.1,0.3,0.1c0.3,0.1,0.6,0.2,0.9,0.3c0.1,0,0.2,0.1,0.2,0.1
			c0.4,0.1,0.8,0.2,1.2,0.3c0.1,0,0.2,0.1,0.3,0.1c0.3,0.1,0.6,0.2,1,0.2c0.1,0,0.3,0.1,0.4,0.1c0.4,0.1,0.8,0.2,1.1,0.2
			c0.1,0,0.1,0,0.2,0c0.5,0.1,0.9,0.2,1.4,0.2c0.1,0,0.3,0,0.4,0.1c0.4,0.1,0.7,0.1,1.1,0.1c0.1,0,0.3,0,0.4,0
			c0.5,0,0.9,0.1,1.4,0.1c0.1,0,0.1,0,0.2,0c0.5,0,1,0.1,1.5,0.1c0.1,0,0.3,0,0.4,0c0.4,0,0.8,0,1.2,0c0.2,0,0.3,0,0.4,0
			c0.5,0,1,0,1.5,0s1,0,1.5,0c0.1,0,0.3,0,0.4,0c0.4,0,0.8,0,1.2,0c0.1,0,0.3,0,0.4,0c0.5,0,1-0.1,1.5-0.1c0,0,0.1,0,0.1,0
			c0.5,0,0.9-0.1,1.4-0.1c0.1,0,0.3,0,0.4,0c0.4,0,0.7-0.1,1.1-0.1c0.1,0,0.3,0,0.4-0.1c0.5-0.1,1-0.1,1.4-0.2c0.1,0,0.1,0,0.2,0
			c0.4-0.1,0.8-0.1,1.2-0.2c0.1,0,0.3-0.1,0.4-0.1c0.3-0.1,0.7-0.2,1-0.2c0.1,0,0.2-0.1,0.3-0.1c0.4-0.1,0.8-0.2,1.2-0.3
			c0.1,0,0.1,0,0.2-0.1c0.3-0.1,0.6-0.2,0.9-0.3c0.1,0,0.2-0.1,0.3-0.1c0.3-0.1,0.5-0.2,0.8-0.3c0.1,0,0.1-0.1,0.2-0.1
			c0.3-0.1,0.5-0.3,0.8-0.4l-1.8,13.3C49.8,40.1,43.7,37.3,41,36c0-1.1-0.9-2-2-2c-1.1,0-2,0.9-2,2c0,1.1,0.9,2,2,2
			c0.4,0,0.7-0.1,1-0.3c3.2,1.5,9.5,4.3,14.2,5.8L52.3,56.8z M38.7,20c10.4,0,17.8,3.2,17.9,5l0,0.2c0,0.1-0.1,0.1-0.1,0.2
			c0,0.1,0,0.1-0.1,0.2c0,0.1-0.1,0.1-0.2,0.2c-0.1,0.1-0.1,0.1-0.2,0.2c-0.1,0.1-0.2,0.1-0.2,0.2c-0.1,0.1-0.1,0.1-0.2,0.2
			c-0.1,0.1-0.2,0.1-0.3,0.2c-0.1,0.1-0.2,0.1-0.3,0.2c-0.1,0.1-0.3,0.1-0.4,0.2c-0.1,0.1-0.2,0.1-0.3,0.2c-0.2,0.1-0.3,0.1-0.5,0.2
			c-0.1,0-0.2,0.1-0.4,0.1c-0.2,0.1-0.4,0.1-0.6,0.2c-0.1,0-0.3,0.1-0.4,0.1c-0.2,0.1-0.4,0.1-0.6,0.2c-0.2,0-0.3,0.1-0.5,0.1
			c-0.2,0.1-0.5,0.1-0.7,0.2c-0.2,0-0.3,0.1-0.5,0.1c-0.3,0.1-0.5,0.1-0.8,0.2c-0.2,0-0.4,0.1-0.5,0.1c-0.3,0.1-0.6,0.1-0.9,0.2
			c-0.2,0-0.4,0.1-0.6,0.1c-0.3,0-0.6,0.1-0.9,0.1C46.2,29,46,29,45.8,29c-0.3,0-0.7,0.1-1,0.1c-0.2,0-0.4,0-0.6,0.1
			c-0.3,0-0.7,0.1-1.1,0.1c-0.2,0-0.4,0-0.7,0.1c-0.4,0-0.8,0-1.2,0.1c-0.2,0-0.4,0-0.7,0c-0.6,0-1.3,0-1.9,0c-0.6,0-1.3,0-1.9,0
			c-0.2,0-0.4,0-0.6,0c-0.4,0-0.8,0-1.2-0.1c-0.2,0-0.4,0-0.7-0.1c-0.4,0-0.7,0-1.1-0.1c-0.2,0-0.4,0-0.6-0.1c-0.3,0-0.7-0.1-1-0.1
			C31.4,29,31.2,29,31,29c-0.3,0-0.7-0.1-1-0.1c-0.2,0-0.4-0.1-0.5-0.1c-0.3-0.1-0.6-0.1-0.9-0.2c-0.2,0-0.3-0.1-0.5-0.1
			c-0.3-0.1-0.6-0.1-0.8-0.2c-0.2,0-0.3-0.1-0.5-0.1c-0.3-0.1-0.5-0.1-0.7-0.2c-0.2,0-0.3-0.1-0.4-0.1c-0.2-0.1-0.5-0.1-0.7-0.2
			c-0.1,0-0.3-0.1-0.4-0.1c-0.2-0.1-0.4-0.1-0.6-0.2c-0.1,0-0.2-0.1-0.3-0.1c-0.2-0.1-0.4-0.1-0.5-0.2c-0.1,0-0.2-0.1-0.3-0.1
			c-0.1-0.1-0.3-0.1-0.4-0.2c-0.1-0.1-0.2-0.1-0.3-0.2c-0.1-0.1-0.2-0.1-0.3-0.2c-0.1-0.1-0.1-0.1-0.2-0.2c-0.1-0.1-0.2-0.1-0.3-0.2
			c-0.1-0.1-0.1-0.1-0.1-0.2c-0.1-0.1-0.1-0.1-0.2-0.2c0-0.1-0.1-0.1-0.1-0.2c0-0.1-0.1-0.1-0.1-0.2l0-0.2
			C20.9,23.2,28.3,20,38.7,20L38.7,20z M61.1,42.2c-0.2-1.2-1.5-2.4-4.2-3.9l1.7-12.8v0v0l0.1-0.4c0,0,0-0.1,0-0.1
			c0-4.2-10.5-7.1-19.9-7.1c-9.4,0-19.9,2.9-19.9,7.1c0,0,0,0.1,0,0.1l0.1,0.4v0v0L23.1,57c0.1,3.7,9.6,5.1,15.6,5.1
			c3.3,0,6.6-0.3,9.4-1c1.1-0.3,2.1-0.6,2.9-0.9c2.2-0.9,3.3-1.9,3.3-3.2l1.7-12.9c1,0.2,1.9,0.4,2.6,0.4c1,0,1.7-0.3,2.1-0.8
			C61.1,43.3,61.2,42.8,61.1,42.2L61.1,42.2z"/>
	</g>
</g>
</svg>
