<?xml version="1.0" encoding="utf-8"?>
<!-- Generator: Adobe Illustrator 26.3.1, SVG Export Plug-In . SVG Version: 6.00 Build 0)  -->
<svg version="1.1" id="Layer_1" xmlns="http://www.w3.org/2000/svg" xmlns:xlink="http://www.w3.org/1999/xlink" x="0px" y="0px"
	 viewBox="0 0 80 80" style="enable-background:new 0 0 80 80;" xml:space="preserve">
<style type="text/css">
	.st0{fill-rule:evenodd;clip-rule:evenodd;fill:#231F20;}
	.st1{fill-rule:evenodd;clip-rule:evenodd;fill:#FFFFFF;}
</style>
<g id="Icon-Architecture_x2F_64_x2F_Arch_x5F_AWS-Serverless-Application-Repository_x5F_64">
	<g id="Icon-Architecture-BG_x2F_64_x2F_Compute">
		<rect id="Rectangle" class="st0" width="80" height="80"/>
	</g>
	<path id="AWS-Serverless-Application-Repository_Icon_64_Squid" class="st1" d="M57.3,56H23.8c-4.4,0-9.5-3.3-9.8-8
		c0,0,0-0.1,0-0.1h11.3c0.4,0,0.8-0.3,0.9-0.6c0.2-0.4,0.1-0.8-0.2-1.1c-0.5-0.5-0.8-1.1-0.8-1.8c0-1.4,1.1-2.5,2.5-2.5
		c1.4,0,2.5,1.1,2.5,2.5c0,0.7-0.3,1.3-0.8,1.8c-0.3,0.3-0.4,0.7-0.2,1.1c0.2,0.4,0.5,0.6,0.9,0.6h11.2c-0.2,0.5-0.3,1-0.3,1.5
		c0,2.5,2,4.5,4.5,4.5c2.5,0,4.5-2,4.5-4.5c0-0.5-0.1-1-0.3-1.5H66C65.8,55.2,59.8,56,57.3,56L57.3,56z M20.7,39.1
		c0.5-0.1,0.8-0.6,0.8-1.1c-0.1-0.5-0.1-1-0.1-1.5c0-4.6,3.3-9.6,7.5-11.3c2.4-1,4.8-1.3,7.2-0.9v11.3c0,0.4,0.2,0.8,0.6,0.9
		c0.4,0.2,0.8,0.1,1.1-0.2c1-1,2.7-1,3.7,0.1c0.5,0.6,0.7,1.3,0.5,2c-0.2,0.9-0.8,1.7-1.7,1.9c-0.9,0.3-1.8,0-2.5-0.7
		c-0.3-0.3-0.7-0.4-1.1-0.2c-0.4,0.2-0.6,0.5-0.6,0.9v5.7h-4.1c0.2-0.5,0.3-1,0.3-1.5c0-2.5-2-4.5-4.5-4.5s-4.5,2-4.5,4.5
		c0,0.5,0.1,1,0.3,1.5h-9.4C14.7,41.3,18.4,39.6,20.7,39.1L20.7,39.1z M38,24.7c1.9,0.6,3.6,1.7,5.1,3.2c1.5,1.5,2.7,3.4,3.5,5.7
		c0.1,0.3,0.4,0.6,0.8,0.6c0.4,0.1,0.7-0.1,0.9-0.4c0.9-1.2,2.3-1.9,3.8-1.9c2.2,0,4.8,1.6,5,6.1c0,0.5,0.4,0.8,0.8,0.9
		c3.3,0.7,7.1,2.4,7.9,7h-18c-0.4,0-0.8,0.3-0.9,0.6c-0.2,0.4-0.1,0.8,0.2,1.1c0.5,0.5,0.8,1.1,0.8,1.8c0,1.4-1.1,2.5-2.5,2.5
		c-1.4,0-2.5-1.1-2.5-2.5c0-0.7,0.3-1.3,0.8-1.8c0.3-0.3,0.4-0.7,0.2-1.1c-0.2-0.4-0.5-0.6-0.9-0.6H38v-3.8c0.9,0.3,1.8,0.4,2.8,0.1
		c1.6-0.5,2.9-1.9,3.1-3.5c0.2-1.3-0.1-2.7-1-3.7c-1.2-1.4-3.2-1.9-4.9-1.3V24.7z M68,46.9c0-0.1,0-0.1,0-0.2
		c-0.3-4.9-3.4-8.3-8.8-9.6c-0.6-5-3.9-7.2-7-7.2c-1.6,0-3,0.5-4.2,1.5c-0.9-1.9-2.1-3.6-3.4-5C40,22,33.9,20.8,28.1,23.2
		c-5,2.1-8.7,7.7-8.7,13.2c0,0.3,0,0.6,0,0.9c-2.6,0.8-7.1,3.2-7.3,9.4c0,0.1,0,0.1,0,0.2c0,0,0,0.1,0,0.1c0,0.1,0,0.2,0,0.4
		c0,0.3,0,0.5,0,0.7C12.4,54,18.4,58,23.8,58h33.5C59.8,58,68,57.2,68,47.5c0-0.1,0-0.3,0-0.4C68,47,68,47,68,46.9L68,46.9z"/>
</g>
</svg>
