<?xml version="1.0" encoding="utf-8"?>
<!-- Generator: Adobe Illustrator 26.3.1, SVG Export Plug-In . SVG Version: 6.00 Build 0)  -->
<svg version="1.1" id="Layer_1" xmlns="http://www.w3.org/2000/svg" xmlns:xlink="http://www.w3.org/1999/xlink" x="0px" y="0px"
	 viewBox="0 0 80 80" style="enable-background:new 0 0 80 80;" xml:space="preserve">
<style type="text/css">
	.st0{fill-rule:evenodd;clip-rule:evenodd;fill:#231F20;}
	.st1{fill-rule:evenodd;clip-rule:evenodd;fill:#FFFFFF;}
</style>
<g id="Icon-Architecture_x2F_64_x2F_Arch_x5F_AWS-ThinkBox-Deadline_x5F_64">
	<g id="Rectangle">
		<rect class="st0" width="80" height="80"/>
	</g>
	<g id="Icon-Service_x2F_64_x2F_AWS-ThinkBox-Deadline_x5F_64" transform="translate(8.000000, 8.000000)">
		<path id="AWS-ThinkBox-Deadline_64_Squid" class="st1" d="M54.8,44.9L33.4,57.3v-3.9v-7.3l10.7-6.2l4.4,2.5l1-1.7l-4.4-2.5V25.8
			l6.3-3.6v0l3.4-1.9V44.9z M30.5,35.3v-4.4l3.8-2.2v4.4L30.5,35.3z M31.4,44.9l-9.7,5.6V39.3l6.8-3.9v1.6c0,0.4,0.2,0.7,0.5,0.9
			c0.3,0.2,0.7,0.2,1,0l1.4-0.8V44.9z M31.4,20.2v7.8L29,29.5c-0.3,0.2-0.5,0.5-0.5,0.9v2.8L21.7,37V25.8L31.4,20.2z M20.7,24.1
			l-4.4-2.5l-1,1.7l4.4,2.5v12.3L10,43.8V19.1L31.4,6.7v11.2L20.7,24.1z M43.1,27v11.2l-9.7,5.6V36l2.4-1.4c0.3-0.2,0.5-0.5,0.5-0.9
			v-2.8L43.1,27z M33.4,19.1l9.7-5.6v11.2l-6.8,3.9v-1.6c0-0.4-0.2-0.7-0.5-0.9c-0.2-0.1-0.3-0.1-0.5-0.1s-0.3,0-0.5,0.1l-1.4,0.8
			V19.1z M56.3,17.6l-4.9-2.8l-1,1.7l3.4,1.9l-8.7,5V11.8c0-0.4-0.2-0.7-0.5-0.9c-0.3-0.2-0.7-0.2-1,0l-10.2,5.9v-10l3.4,1.9l1-1.7
			l-4.9-2.8c0,0,0,0,0,0c-0.3-0.2-0.7-0.2-1,0L8.5,17.6C8.2,17.8,8,18.1,8,18.5v27c0,0.4,0.2,0.7,0.5,0.9c0,0,0,0,0,0l4.9,2.8l1-1.7
			l-3.4-2l8.7-5v11.8c0,0.4,0.2,0.7,0.5,0.9c0.3,0.2,0.7,0.2,1,0l10.2-5.9v10l-3.4-2l-1,1.7l4.9,2.8C32,60,32.2,60,32.4,60
			s0.3,0,0.5-0.1l23.4-13.5c0.3-0.2,0.5-0.5,0.5-0.9v-27C56.8,18.1,56.6,17.8,56.3,17.6L56.3,17.6z"/>
	</g>
</g>
</svg>
