<?xml version="1.0" encoding="utf-8"?>
<!-- Generator: Adobe Illustrator 26.3.1, SVG Export Plug-In . SVG Version: 6.00 Build 0)  -->
<svg version="1.1" id="Layer_1" xmlns="http://www.w3.org/2000/svg" xmlns:xlink="http://www.w3.org/1999/xlink" x="0px" y="0px"
	 viewBox="0 0 80 80" style="enable-background:new 0 0 80 80;" xml:space="preserve">
<style type="text/css">
	.st0{fill-rule:evenodd;clip-rule:evenodd;fill:#231F20;}
	.st1{fill-rule:evenodd;clip-rule:evenodd;fill:#FFFFFF;}
</style>
<g id="Icon-Architecture_x2F_64_x2F_Arch_x5F_AWS-ThinkBox-Frost_x5F_64">
	<g id="Rectangle">
		<rect class="st0" width="80" height="80"/>
	</g>
	<g id="Icon-Service_x2F_64_x2F_AWS-ThinkBox-Frost_x5F_64" transform="translate(8.000000, 8.000000)">
		<path id="Fill-1" class="st1" d="M44.3,37.8L40,35.4v-6.7l4.4-2.5L54.5,32L44.3,37.8z M43.3,51.2l-10.1-5.8v-4.9l5.8-3.4l4.3,2.5
			V51.2z M32.2,38.7l-5.8-3.4v-6.7l5.8-3.3l5.8,3.3v6.7L32.2,38.7z M31.2,45.4l-10.1,5.8V39.6l4.3-2.4l5.8,3.4V45.4z M20.1,37.8
			L10,32l10.1-5.8l4.4,2.5v6.7L20.1,37.8z M21.1,12.7l10.1,5.8v5L25.4,27l-4.3-2.5V12.7z M33.2,18.6l10.1-5.8v11.7L39,27l-5.8-3.3
			V18.6z M57,31.1L46.4,25l5-2.9l4.5,2.6l1-1.7l-3.5-2l3.5-2.1l-1-1.7l-3.5,2.1v-4.1h-2v5.3l-5.1,2.9V11c0-0.4-0.2-0.7-0.5-0.9
			c-0.3-0.2-0.7-0.2-1,0l-10.6,6.1l0-5.8l4.6-2.6l-1-1.7l-3.6,2.1V4h-2v4.1l-3.6-2.1l-1,1.7l4.6,2.6l0,5.8l-10.6-6.1
			c-0.3-0.2-0.7-0.2-1,0s-0.5,0.5-0.5,0.9v12.3l-5.1-2.9v-5.3h-2v4.1l-3.5-2.1l-1,1.7l3.5,2.1l-3.5,2l1,1.7l4.5-2.6l5,2.9L7.5,31.1
			C7.2,31.3,7,31.6,7,32c0,0.4,0.2,0.7,0.5,0.9L18.1,39l-5.1,2.9l-4.6-2.6l-1,1.7l3.6,2.1l-3.6,2l1,1.7l3.6-2v4.1h2v-5.3l5.1-2.9V53
			c0,0.4,0.2,0.7,0.5,0.9c0.3,0.2,0.7,0.2,1,0l10.6-6.1l0,5.8l-4.6,2.6l1,1.7l3.6-2V60h2v-4.1l3.6,2l1-1.7l-4.6-2.6l0-5.8l10.6,6.1
			c0.3,0.2,0.7,0.2,1,0c0.3-0.2,0.5-0.5,0.5-0.9V40.7l5.1,2.9v5.2h2v-4.1l3.6,2l1-1.7l-3.6-2L57,41l-1-1.7l-4.6,2.6L46.3,39L57,32.8
			c0.3-0.2,0.5-0.5,0.5-0.9C57.5,31.6,57.3,31.3,57,31.1L57,31.1z"/>
	</g>
</g>
</svg>
